<svg width="1400" height="980" viewBox="0 0 1400 980" fill="none" xmlns="http://www.w3.org/2000/svg">
  <rect width="1400" height="980" fill="#F5E5EA"/>
  <rect x="956" y="53" width="312" height="112" rx="18" fill="#1F1F24" fill-opacity="0.85"/>
  <text x="1011" y="123" fill="#F9D9A8" font-family="Georgia, serif" font-size="68" letter-spacing="8">BAZH</text>
  <g opacity="0.95">
    <circle cx="720" cy="450" r="290" fill="#FFF9FB"/>
    <circle cx="570" cy="460" r="160" fill="#FFF5FA"/>
    <circle cx="850" cy="495" r="170" fill="#FFF7FB"/>
  </g>
  <g opacity="0.96">
    <circle cx="668" cy="418" r="84" fill="#F6B9CF"/>
    <circle cx="782" cy="380" r="80" fill="#FEE7EE"/>
    <circle cx="879" cy="450" r="76" fill="#F4D9E7"/>
    <circle cx="606" cy="538" r="98" fill="#FEFDFE"/>
    <circle cx="734" cy="546" r="115" fill="#F5C8DA"/>
    <circle cx="860" cy="574" r="105" fill="#FFFDFC"/>
    <circle cx="943" cy="521" r="70" fill="#F8B6CD"/>
    <circle cx="536" cy="424" r="72" fill="#FFF9FC"/>
    <circle cx="790" cy="640" r="78" fill="#F1A7C3"/>
    <circle cx="639" cy="650" r="86" fill="#FFF6FB"/>
  </g>
  <g opacity="0.9">
    <path d="M420 680C548 760 857 789 1015 700L1083 798C905 886 528 858 349 745L420 680Z" fill="#DDDFE5"/>
    <path d="M352 745C531 858 908 886 1087 798L1010 942H433L352 745Z" fill="#777983"/>
  </g>
  <rect y="851" width="1400" height="129" fill="#17171B"/>
  <text x="120" y="120" fill="#FFFFFF" fill-opacity="0.72" font-family="Segoe UI, Arial, sans-serif" font-size="32">Замініть це фото на своє у папці images</text>
</svg>
