<svg width="1400" height="980" viewBox="0 0 1400 980" fill="none" xmlns="http://www.w3.org/2000/svg">
  <rect width="1400" height="980" fill="#EFE5DD"/>
  <rect width="1400" height="980" fill="url(#paint0_linear_16_2)" fill-opacity="0.16"/>
  <rect x="44" y="45" width="1312" height="890" rx="24" stroke="#FFFFFF" stroke-opacity="0.36" stroke-width="10"/>
  <circle cx="326" cy="571" r="198" fill="#F2D3D9"/>
  <circle cx="536" cy="473" r="180" fill="#E5F1FB"/>
  <circle cx="735" cy="603" r="190" fill="#F7E7D4"/>
  <circle cx="992" cy="538" r="176" fill="#F4F2E6"/>
  <circle cx="413" cy="349" r="104" fill="#FAF9F6"/>
  <circle cx="642" cy="341" r="110" fill="#FFF5F8"/>
  <circle cx="878" cy="377" r="115" fill="#E0EEF9"/>
  <circle cx="1095" cy="354" r="92" fill="#FAF4E9"/>
  <path d="M242 716C309 607 497 521 620 528C761 536 942 610 1040 721" stroke="#8C6A49" stroke-width="30" stroke-linecap="round"/>
  <path d="M555 790C645 714 820 681 966 731" stroke="#8C6A49" stroke-width="24" stroke-linecap="round"/>
  <text x="102" y="134" fill="#FFFFFF" fill-opacity="0.78" font-family="Segoe UI, Arial, sans-serif" font-size="32">Замініть це фото на своє у папці images</text>
  <defs>
    <linearGradient id="paint0_linear_16_2" x1="158" y1="112" x2="1185" y2="871" gradientUnits="userSpaceOnUse">
      <stop stop-color="#FFFFFF"/>
      <stop offset="1" stop-color="#A27148"/>
    </linearGradient>
  </defs>
</svg>
