<svg width="320" height="120" viewBox="0 0 320 120" fill="none" xmlns="http://www.w3.org/2000/svg">
  <rect width="320" height="120" rx="28" fill="#FFF2F7"/>
  <circle cx="60" cy="60" r="29" fill="#E46B9A" fill-opacity="0.18"/>
  <path d="M60 33C63.4 43.8 72.2 52.6 83 56C72.2 59.4 63.4 68.2 60 79C56.6 68.2 47.8 59.4 37 56C47.8 52.6 56.6 43.8 60 33Z" fill="#D95488"/>
  <path d="M149.392 49.68C146.32 49.68 144.272 47.76 144.272 45.2C144.272 42.576 146.32 40.656 149.392 40.656C152.464 40.656 154.512 42.576 154.512 45.2C154.512 47.76 152.464 49.68 149.392 49.68ZM149.392 78.8C146.32 78.8 144.272 76.88 144.272 74.32C144.272 71.696 146.32 69.776 149.392 69.776C152.464 69.776 154.512 71.696 154.512 74.32C154.512 76.88 152.464 78.8 149.392 78.8ZM183.392 79.12C172.64 79.12 165.344 72.016 165.344 59.84C165.344 47.664 172.64 40.4 183.392 40.4C188.192 40.4 192.48 41.872 195.744 44.432L192.608 49.68C189.92 47.632 186.912 46.48 183.648 46.48C176.48 46.48 171.872 51.152 171.872 59.84C171.872 68.592 176.544 73.04 183.648 73.04C186.912 73.04 189.92 71.888 192.608 69.84L195.744 75.024C192.48 77.648 188.192 79.12 183.392 79.12ZM220.151 78.48L216.887 69.584H202.615L199.415 78.48H192.439L206.007 41.04H213.559L227.127 78.48H220.151ZM204.599 63.888H214.903L209.783 49.232L204.599 63.888ZM241.347 78.48V41.04H247.747V72.72H264.899V78.48H241.347Z" fill="#231F28"/>
  <path d="M147.2 92H265.6" stroke="#E46B9A" stroke-width="2" stroke-linecap="round" stroke-opacity="0.55"/>
  <text x="147" y="104" fill="#786B74" font-family="Segoe UI, Arial, sans-serif" font-size="14" letter-spacing="4">SHELYST FLOWERS</text>
</svg>
